<?xml version="1.0" encoding="UTF-8"?>
<svg width="120px" height="120px" viewBox="0 0 120 120" version="1.1" xmlns="http://www.w3.org/2000/svg" xmlns:xlink="http://www.w3.org/1999/xlink">
    <!-- Generator: Sketch 55.2 (78181) - https://sketchapp.com -->
    <title>手机备份</title>
    <desc>Created with Sketch.</desc>
    <g id="首页" stroke="none" stroke-width="1" fill="none" fill-rule="evenodd">
        <g id="手机备份">
            <path d="M44.7721258,20 L75.9392956,20 C79.6794374,20 82.7114214,23.031984 82.7114214,26.7721258 L82.7114214,96.4320369 C82.7114214,100.172179 79.6794374,103.204163 75.9392956,103.204163 L44.7721258,103.204163 C41.031984,103.204163 38,100.172179 38,96.4320369 L38,26.7721258 C38,23.031984 41.031984,20 44.7721258,20 Z" id="矩形" stroke="#323232" stroke-width="2.56666667"></path>
            <path d="M50.9581019,20.0063068 L50,20.0063068 L69.1620377,20.0063068 L68.2039358,20.0063068 C66.8138486,20.0117972 65.5869652,20.9176528 65.1699465,22.2464188 L64.6908956,23.8464989 C64.419208,24.4765813 63.7767402,24.862845 63.0940591,24.8065469 L55.908295,24.8065469 C55.1839698,24.8397741 54.528225,24.3798204 54.3114585,23.6864909 L53.9920912,22.0864108 C53.501829,20.7631751 52.2042852,19.9180584 50.7984182,20.0063068 L50.9581019,20.0063068 Z" id="路径" stroke="#323232" stroke-width="0.55" fill="#323232" fill-rule="nonzero"></path>
            <rect id="矩形" fill="#323232" fill-rule="nonzero" x="55" y="95" width="9.58101887" height="3.66666667" rx="1.83333333"></rect>
        </g>
    </g>
</svg>