<?xml version="1.0" encoding="UTF-8"?>
<svg width="120px" height="120px" viewBox="0 0 120 120" version="1.1" xmlns="http://www.w3.org/2000/svg" xmlns:xlink="http://www.w3.org/1999/xlink">
    <!-- Generator: Sketch 55.2 (78181) - https://sketchapp.com -->
    <title>智能穿戴备份</title>
    <desc>Created with Sketch.</desc>
    <g id="首页" stroke="none" stroke-width="1" fill="none" fill-rule="evenodd">
        <g id="智能穿戴备份">
            <rect id="矩形-copy-14" x="0" y="0" width="120" height="120"></rect>
            <g id="穿戴备份-4-copy" transform="translate(33.000000, 18.000000)">
                <g id="穿戴备份-5">
                    <g id="穿戴" transform="translate(0.962672, 0.669247)">
                        <path d="M14.1466875,69.6629533 L10.6100156,69.6629533 C7.07334375,64.4382318 0,55.7303626 0,41.7977719 C0,27.8651813 7.07334375,19.1573121 10.6100156,13.9325907 L14.1466875,13.9325907 M38.9033907,13.9325907 L42.4400625,13.9325907 C45.9767344,19.1573121 53.0500782,27.8651813 53.0500782,41.7977719 C53.0500782,55.7303626 45.9767344,64.4382318 42.4400625,69.6629533 L38.9033907,69.6629533" id="形状" stroke="#323232" stroke-width="2.57" stroke-linecap="round" stroke-linejoin="round"></path>
                        <path d="M38.9033907,64.7865466 L38.9033907,77.8134694 C38.9033907,81.006821 36.3146676,83.595544 33.121316,83.595544 L19.9287584,83.595544 C16.7354068,83.595544 14.1466839,81.006821 14.1466839,77.8134694 L14.1466839,64.7865466 M14.1466875,18.8089974 L14.1466875,5.78207461 C14.1466875,2.58872297 16.7354104,-3.63886699e-12 19.9287622,-3.63886699e-12 L33.121316,-3.63886699e-12 C36.3146676,-3.63886699e-12 38.9033907,2.58872297 38.9033907,5.78207461 L38.9033907,18.8089974" id="形状" stroke="#323232" stroke-width="2.57"></path>
                        <path d="M12.3783516,20.0280991 C20.9269953,14.3455707 32.1230829,14.3455707 40.6717266,20.0280991 M40.6717266,63.5674449 C32.1230829,69.2499733 20.9269953,69.2499733 12.3783516,63.5674449" id="形状" stroke="#323232" stroke-width="2.57" stroke-linecap="round" stroke-linejoin="round"></path>
                        <circle id="椭圆形" fill="#D5D4D4" fill-rule="nonzero" cx="26.8486328" cy="41.9355469" r="21.5"></circle>
                    </g>
                </g>
            </g>
        </g>
    </g>
</svg>