<?xml version="1.0" encoding="UTF-8"?>
<svg width="120px" height="120px" viewBox="0 0 120 120" version="1.1" xmlns="http://www.w3.org/2000/svg" xmlns:xlink="http://www.w3.org/1999/xlink">
    <!-- Generator: Sketch 55.2 (78181) - https://sketchapp.com -->
    <title>配件备份 2</title>
    <desc>Created with Sketch.</desc>
    <defs>
        <polygon id="path-1" points="0.320143284 0.773199519 8.41894433 0.773199519 8.41894433 12.079077 0.320143284 12.079077"></polygon>
    </defs>
    <g id="首页" stroke="none" stroke-width="1" fill="none" fill-rule="evenodd">
        <g id="配件备份-2">
            <rect id="矩形" x="0" y="0" width="120" height="120"></rect>
            <g id="分组" transform="translate(21.000000, 20.000000)">
                <g id="Group-12" transform="translate(53.711777, 7.567087)">
                    <path d="M13.3457862,25.2372324 L13.3457862,30.8661249 C13.3457862,32.1527289 12.2200077,33.2785074 10.9334036,33.2785074 L9.32514864,33.2785074 C8.03854464,33.2785074 6.91276614,32.1527289 6.91276614,30.8661249 L6.91276614,25.2372324" id="Stroke-9" stroke="#323232" stroke-width="2.57" stroke-linecap="round" stroke-linejoin="round"></path>
                    <g id="Group-13" transform="translate(15.649773, 12.615143)">
                        <g id="Fill-11-Clipped">
                            <mask id="mask-2" fill="white">
                                <use xlink:href="#path-1"></use>
                            </mask>
                            <g id="path-1"></g>
                            <path d="M0.916666666,8.85462092 L1.65178582,5.34397713 L2.28188794,1.83333334 C4.80229646,1.93363744 7.0076539,3.63880728 6.27358492,6.2467141 C5.64243262,8.95492503 3.12307428,9.65705379 1.02273386,8.85462092 L0.916666666,8.85462092 Z" id="Fill-11" fill="#323232" fill-rule="nonzero" mask="url(#mask-2)"></path>
                        </g>
                    </g>
                    <path d="M10.0364922,10.0515938 L8.49009316,10.0515938 C4.21893901,10.0515938 0.758097966,13.5139813 0.758097966,17.7835889 C0.758097966,22.0531967 4.21893901,25.5155842 8.49009316,25.5155842 L10.0364922,25.5155842" id="Stroke-14" stroke="#323232" stroke-width="1.83333334" stroke-linecap="round" stroke-linejoin="round"></path>
                    <path d="M10.1292761,49.1745799 C11.9047897,49.1745799 13.3457862,50.4750243 13.3457862,52.0773576 L13.3457862,63.6884687 C13.3457862,65.2908021 11.9047897,66.5912465 10.1292761,66.5912465 C8.35376261,66.5912465 6.91276614,65.2908021 6.91276614,63.6884687 L6.91276614,52.0773576 C6.91276614,50.4750243 8.35376261,49.1745799 10.1292761,49.1745799 Z" id="Stroke-22" stroke="#323232" stroke-width="2.57" stroke-linecap="round" stroke-linejoin="round"></path>
                    <path d="M4.77873547,10.0515938 C5.70812129,5.87631635 9.26329268,2.78351826 15.4488888,0.773199519 C8.18081335,1.23711924 0.758097966,6.95879567 0.758097966,17.7835889 L3.63468989,10.0515938" id="Stroke-18" stroke="#323232" stroke-width="2.10833334" stroke-linecap="round" stroke-linejoin="round"></path>
                    <path d="M10.0364922,33.2475793 L10.0364922,48.7115697 L10.0364922,33.2475793 Z M10.0364922,67.2683582 L10.0364922,71.9075553 L10.0364922,67.2683582 Z M17.7684874,17.7835889 C17.7684874,13.5139813 14.3076463,10.0515938 10.0364922,10.0515938 C5.76533805,10.0515938 2.30449701,13.5139813 2.30449701,17.7835889 C2.30449701,22.0531967 5.76533805,25.5155842 10.0364922,25.5155842 C14.3076463,25.5155842 17.7684874,22.0531967 17.7684874,17.7835889 Z" id="Stroke-20" stroke="#323232" stroke-width="2.57" stroke-linecap="round" stroke-linejoin="round"></path>
                </g>
                <g id="Group-14" transform="translate(0.314981, 0.293425)" stroke="#323232">
                    <g id="Group-5" transform="translate(12.061913, 69.154965)" fill="#D6D4D4" fill-rule="nonzero" stroke-width="1.8">
                        <path d="M20.907315,0 C21.7950718,0 22.51557,0.718889985 22.51557,1.608255 C22.51557,2.49762002 21.7950718,3.21651 20.907315,3.21651 C20.0195582,3.21651 19.29906,2.49762002 19.29906,1.608255 C19.29906,0.718889985 20.0195582,0 20.907315,0" id="Fill-7"></path>
                        <path d="M14.474295,0 C15.3620518,0 16.08255,0.718889985 16.08255,1.608255 C16.08255,2.49762002 15.3620518,3.21651 14.474295,3.21651 C13.5865382,3.21651 12.86604,2.49762002 12.86604,1.608255 C12.86604,0.718889985 13.5865382,0 14.474295,0" id="Fill-7"></path>
                        <path d="M8.041275,0 C8.92903176,0 9.64953,0.718889985 9.64953,1.608255 C9.64953,2.49762002 8.92903176,3.21651 8.041275,3.21651 C7.15351824,3.21651 6.43302,2.49762002 6.43302,1.608255 C6.43302,0.718889985 7.15351824,0 8.041275,0" id="Fill-7"></path>
                        <path d="M1.608255,0 C2.49601176,0 3.21651,0.718889985 3.21651,1.608255 C3.21651,2.49762002 2.49601176,3.21651 1.608255,3.21651 C0.72049824,3.21651 0,2.49762002 0,1.608255 C0,0.718889985 0.72049824,0 1.608255,0" id="Fill-7"></path>
                    </g>
                    <path d="M3.33138535,0.916666666 C1.98412933,0.916666666 0.916666666,1.90767975 0.916666666,3.09279808 L0.916666666,77.3199519 C0.916666666,78.5050703 1.98412933,79.4960834 3.33138535,79.4960834 L43.3080097,79.4960834 C44.6552657,79.4960834 45.7227284,78.5050703 45.7227284,77.3199519 L45.7227284,3.09279808 C45.7227284,1.90767975 44.6552657,0.916666666 43.3080097,0.916666666 L3.33138535,0.916666666 Z" id="Stroke-16" stroke-width="2.57"></path>
                    <path d="M24.4332669,27.1123926 L18.5623769,39.0324388 C18.3877951,39.4225494 18.5639219,39.8807747 18.9547995,40.0541571 C19.0258682,40.0866664 19.1015717,40.1067911 19.1803653,40.1160794 L23.3517871,40.1160794 L22.4248045,48.0111751 C22.2965719,48.4384391 22.5375874,48.8889239 22.9655444,49.0174127 C23.3919564,49.1459016 23.841543,48.9028565 23.9697756,48.4755924 L29.6861685,36.5555462 C29.8592053,36.1654356 29.6830786,35.7072103 29.2937459,35.5338279 C29.2226772,35.5013186 29.1454286,35.4811939 29.0681801,35.4719056 L24.8967583,35.4719056 L25.8237409,27.5768099 C25.9504285,27.1495459 25.709413,26.6990611 25.283001,26.5705723 C24.8550441,26.4420834 24.4054574,26.6851285 24.2787698,27.1123926 L24.4332669,27.1123926 Z" id="Fill-24" stroke-width="2.4" fill="#D6D4D4" fill-rule="nonzero"></path>
                </g>
            </g>
        </g>
    </g>
</svg>