<?xml version="1.0" encoding="UTF-8"?>
<svg width="60px" height="60px" viewBox="0 0 60 60" version="1.1" xmlns="http://www.w3.org/2000/svg" xmlns:xlink="http://www.w3.org/1999/xlink">
    <!-- Generator: Sketch 53.2 (72643) - https://sketchapp.com -->
    <title>分组 5</title>
    <desc>Created with Sketch.</desc>
    <g id="更多服务已完成" stroke="none" stroke-width="1" fill="none" fill-rule="evenodd">
        <g id="更多功能服务功能1" transform="translate(-1250.000000, -918.000000)">
            <g id="分组-5" transform="translate(1250.000000, 918.000000)">
                <g id="漫游服务" transform="translate(9.500000, 4.500000)">
                    <path d="M10.7760385,29.8774085 C15.1539229,32.6199754 20.398159,33.7330163 25.5404994,33.0103075 C31.8957535,32.1171348 37.5182343,28.5445933 40.9683447,23.209938 C40.9711309,23.205492 40.9698187,23.1997788 40.9654856,23.1970644 L4.2037247,0.16824941 C4.18300667,0.15527093 4.15570638,0.16133404 4.14242614,0.18186808 C2.55402432,2.63783985 1.50117343,5.32179659 1.01060764,8.16392022 C0.53684738,10.9083196 0.60528694,13.6802896 1.21427401,16.4072944 C1.82329483,19.1344506 2.94132002,21.6749957 4.53900289,23.9624519 C6.1937884,26.3315737 8.29077135,28.3205828 10.7760385,29.8774085 Z" id="路径-copy" stroke="#000000" stroke-width="2.4"></path>
                    <path d="M27.7775368,4.25799363 L27.7775368,4.25799363 C28.4853657,4.73963663 28.6742842,5.70093262 28.2013677,6.41462139 L24.6118451,11.8316497 C24.146364,12.5341175 23.1995544,12.7262332 22.4970866,12.2607521 C22.4918812,12.2573028 22.486697,12.2538216 22.4815343,12.2503086 L22.4815343,12.2503086 C21.7737055,11.7686656 21.5847869,10.8073696 22.0577034,10.0936809 L25.647226,4.67665257 C26.1127071,3.97418478 27.0595167,3.78206907 27.7619845,4.24755012 C27.7671899,4.25099943 27.7723741,4.25448067 27.7775368,4.25799363 Z" id="矩形-copy" fill="#000000" fill-rule="nonzero"></path>
                    <path d="M10.0230601,39.4571211 L7.80727253,49.2233666 C7.70951416,49.6542437 7.97956028,50.0827875 8.41043742,50.1805459 C8.46851782,50.1937233 8.52788809,50.2003738 8.5874446,50.2003738 L21.739436,50.2003738 C22.1812638,50.2003738 22.539436,49.8422016 22.539436,49.4003738 C22.539436,49.3707203 22.5377873,49.3410898 22.5344975,49.3116194 L21.7913728,42.6547141 C21.4288393,39.4071421 19.111029,36.7146201 15.9535082,35.8730638 C13.3862243,35.1888202 10.7503404,36.7153258 10.0660967,39.2826098 C10.0506656,39.3405071 10.0363176,39.3986877 10.0230601,39.4571211 Z" id="路径-copy-2" stroke="#000000" stroke-width="2.4"></path>
                </g>
                <rect id="矩形" x="0" y="0" width="60" height="60"></rect>
            </g>
        </g>
    </g>
</svg>