<?xml version="1.0" encoding="UTF-8"?>
<svg width="60px" height="60px" viewBox="0 0 60 60" version="1.1" xmlns="http://www.w3.org/2000/svg" xmlns:xlink="http://www.w3.org/1999/xlink">
    <!-- Generator: Sketch 53.2 (72643) - https://sketchapp.com -->
    <title>真伪查询1127</title>
    <desc>Created with Sketch.</desc>
    <g id="备件价格详情页" stroke="none" stroke-width="1" fill="none" fill-rule="evenodd">
        <g id="真伪查询1127">
            <rect id="矩形" x="0" y="0" width="60" height="60"></rect>
            <path d="M34.673675,34.974225 L34.673675,34.974225 C35.1960275,34.5699121 35.946918,34.6637734 36.353675,35.184225 L40.053675,39.974225 C40.4579879,40.4965775 40.3641266,41.247468 39.843675,41.654225 L39.843675,41.654225 C39.3213225,42.0585379 38.570432,41.9646766 38.163675,41.444225 L34.473675,36.694225 C34.2655923,36.4422092 34.1693005,36.1162253 34.2070483,35.791594 C34.2447962,35.4669627 34.4133177,35.1717711 34.673675,34.974225 Z" id="矩形" fill="#323232" fill-rule="nonzero"></path>
            <path d="M29.153535,35.9444396 C32.3945822,35.9687481 35.3300366,34.0350986 36.5872117,31.0477102 C37.8443867,28.0603219 37.1748301,24.6095847 34.8916421,22.3091433 C32.608454,20.008702 29.1628551,19.3131868 26.1660873,20.5478367 C23.1693194,21.7824867 21.213535,24.7033012 21.213535,27.9444396 C21.213535,32.3393918 24.7587064,35.9114775 29.153535,35.9444396 Z M29.313675,38.374225 C25.0899175,38.4146913 21.2587702,35.9036549 19.6105619,32.0145452 C17.9623536,28.1254355 18.8225437,23.626206 21.7891577,20.6193861 C24.7557718,17.6125662 29.2430148,16.6918903 33.1539585,18.2875982 C37.0649022,19.8833062 39.6272819,23.6803055 39.6437542,27.904225 C39.6658179,33.6330702 35.0424967,38.296672 29.313675,38.324225 L29.313675,38.374225 Z" id="路径-2" fill="#323232" fill-rule="nonzero"></path>
            <path d="M49.813675,36.374225 L49.813675,13.0180029 C49.813675,12.5812956 49.5302902,12.1950959 49.1137016,12.0640721 L30.2737016,6.13858821 C30.0783998,6.07716265 29.8689502,6.07716265 29.6736484,6.13858821 L10.8336484,12.0640721 C10.4170598,12.1950959 10.133675,12.5812956 10.133675,13.0180029 L10.133675,36.354225 C10.203675,42.554225 16.733675,48.434225 29.973675,53.824225 C43.213675,48.444225 49.743675,42.554225 49.813675,36.374225 Z M29.523675,56.234225 C15.173675,50.474225 7.823675,43.914225 7.733675,36.374225 L7.733675,11.9920854 C7.733675,11.1185246 8.30063104,10.3460315 9.1339995,10.084105 L29.3730297,3.72300696 C29.764002,3.60012492 30.1832869,3.60031885 30.5741454,3.72356253 L50.7751153,10.0932377 C51.6075898,10.3557297 52.173675,11.1277846 52.173675,12.0006626 L52.173675,36.384225 C52.083675,43.914225 44.733675,50.474225 30.383675,56.234225 L29.933675,56.414225 L29.523675,56.234225 Z" id="路径" fill="#323232" fill-rule="nonzero"></path>
        </g>
    </g>
</svg>