<?xml version="1.0" encoding="UTF-8"?>
<svg width="60px" height="60px" viewBox="0 0 60 60" version="1.1" xmlns="http://www.w3.org/2000/svg" xmlns:xlink="http://www.w3.org/1999/xlink">
    <!-- Generator: Sketch 53.2 (72643) - https://sketchapp.com -->
    <title>寄修服务</title>
    <desc>Created with Sketch.</desc>
    <g id="02云服务" stroke="none" stroke-width="1" fill="none" fill-rule="evenodd">
        <g id="寄修服务">
            <g transform="translate(4.000000, 8.000000)" fill="#323232" fill-rule="nonzero" id="分组-20">
                <g transform="translate(0.157353, 0.157353)">
                    <path d="M2.4,35.6260198 L7.06786843,35.6260198 L7.06786843,38.0260198 L2.352,38.0260198 C1.05302627,38.0260198 1.77635684e-14,36.9729935 1.77635684e-14,35.6740198 L1.77635684e-14,3.504 C1.77635684e-14,1.56879424 1.56879424,-1.88293825e-13 3.504,-1.88293825e-13 L34.5338566,-1.88293825e-13 C35.4318815,-1.88293825e-13 36.2956298,0.34478808 36.9468026,0.963191495 L51.8400272,15.106936 C52.5366415,15.7684941 52.9310814,16.6870519 52.9310814,17.6477445 L52.9310814,35.6740198 C52.9310814,36.9729935 51.8780551,38.0260198 50.5790814,38.0260198 L46.0800729,38.0260198 L46.0800729,35.6260198 L50.5310814,35.6260198 L50.5310814,17.6477445 C50.5310814,17.3450606 50.4068058,17.055652 50.1873245,16.8472158 L35.2940999,2.70347131 C35.0889358,2.50863187 34.8167959,2.4 34.5338566,2.4 L3.504,2.4 C2.89427764,2.4 2.4,2.89427764 2.4,3.504 L2.4,35.6260198 Z" id="路径"></path>
                    <path d="M42.1853016,9.44514851 C42.1853016,8.78240681 42.7225599,8.24514851 43.3853016,8.24514851 C44.0480433,8.24514851 44.5853016,8.78240681 44.5853016,9.44514851 L44.5853016,19.6898128 C44.5853016,20.9887865 43.5322754,22.0418128 42.2333016,22.0418128 L31.4087986,22.0418128 C30.7460569,22.0418128 30.2087986,21.5045545 30.2087986,20.8418128 C30.2087986,20.1790711 30.7460569,19.6418128 31.4087986,19.6418128 L42.1853016,19.6418128 L42.1853016,9.44514851 Z" id="路径" transform="translate(37.397050, 15.143481) scale(-1, 1) translate(-37.397050, -15.143481) "></path>
                    <path d="M39.6475619,42.3131282 C35.7046214,42.3131282 32.5073004,39.1242363 32.5073004,35.1893855 C32.5073004,31.2545347 35.7046214,28.0656429 39.6475619,28.0656429 C43.5905024,28.0656429 46.7878234,31.2545347 46.7878234,35.1893855 C46.7878234,39.1242363 43.5905024,42.3131282 39.6475619,42.3131282 Z M39.6475619,39.9131282 C42.2664352,39.9131282 44.3878234,37.7973326 44.3878234,35.1893855 C44.3878234,32.5814385 42.2664352,30.4656429 39.6475619,30.4656429 C37.0286886,30.4656429 34.9073004,32.5814385 34.9073004,35.1893855 C34.9073004,37.7973326 37.0286886,39.9131282 39.6475619,39.9131282 Z" id="Oval-3"></path>
                    <path d="M13.2835195,42.3131282 C9.34057896,42.3131282 6.14325796,39.1242364 6.14325796,35.1893855 C6.14325796,31.2545347 9.34057898,28.0656429 13.2835195,28.0656429 C17.22646,28.0656429 20.4237809,31.2545347 20.4237809,35.1893855 C20.4237809,39.1242364 17.22646,42.3131282 13.2835195,42.3131282 Z M13.2835195,39.9131282 C15.9023927,39.9131282 18.0237809,37.7973327 18.0237809,35.1893855 C18.0237809,32.5814384 15.9023927,30.4656429 13.2835195,30.4656429 C10.6646462,30.4656429 8.54325796,32.5814384 8.54325796,35.1893855 C8.54325796,37.7973326 10.6646462,39.9131282 13.2835195,39.9131282 Z" id="Oval-3"></path>
                    <path d="M19.3497243,37.5362774 C18.7134923,37.5362774 18.1977243,37.0205094 18.1977243,36.3842774 C18.1977243,35.7480454 18.7134923,35.2322774 19.3497243,35.2322774 L33.6676216,35.2322774 C34.3038536,35.2322774 34.8196216,35.7480454 34.8196216,36.3842774 C34.8196216,37.0205094 34.3038536,37.5362774 33.6676216,37.5362774 L19.3497243,37.5362774 Z" id="路径-4"></path>
                </g>
            </g>
            <rect id="矩形" x="0" y="0" width="60" height="60"></rect>
        </g>
    </g>
</svg>