<?xml version="1.0" encoding="UTF-8"?>
<svg width="60px" height="60px" viewBox="0 0 60 60" version="1.1" xmlns="http://www.w3.org/2000/svg" xmlns:xlink="http://www.w3.org/1999/xlink">
    <!-- Generator: Sketch 53.2 (72643) - https://sketchapp.com -->
    <title>维修进度</title>
    <desc>Created with Sketch.</desc>
    <g id="更多服务已完成" stroke="none" stroke-width="1" fill="none" fill-rule="evenodd">
        <g id="更多功能服务功能1" transform="translate(-1283.000000, -1110.000000)">
            <g id="维修进度" transform="translate(1283.000000, 1110.000000)">
                <g id="维修查询" transform="translate(4.000000, 4.500000)" fill="#323232" fill-rule="nonzero">
                    <g id="Group-62" transform="translate(0.283857, 0.000000)">
                        <g id="分组">
                            <g id="路径">
                                <path d="M17.8700665,3.2 C17.2073248,3.2 16.6700665,3.7372583 16.6700665,4.4 L16.6700665,7.9268293 C16.6700665,9.48228844 15.4091177,10.7432372 13.8536586,10.7432372 C12.2981994,10.7432372 11.0372506,9.48228847 11.0372506,7.9268293 L11.0372506,4.4 C11.0372506,3.73725832 10.4999923,3.2 9.83725055,3.2 L4.4,3.2 C3.7372583,3.2 3.2,3.7372583 3.2,4.4 L3.2,24.9237251 C3.2,25.5864668 3.7372583,26.1237251 4.4,26.1237251 L4.44922395,26.1237251 C6.43744905,26.1237251 8.04922395,27.7355 8.04922395,29.7237251 L8.04922395,47.0146341 C8.04922395,47.6773758 8.58648225,48.2146341 9.24922395,48.2146341 L18.4580931,48.2146341 C19.1208348,48.2146341 19.6580931,47.6773758 19.6580931,47.0146341 L19.6580931,29.7237251 C19.6580931,27.7355 21.269868,26.1237251 23.2580931,26.1237251 L23.3073171,26.1237251 C23.9700588,26.1237251 24.5073171,25.5864668 24.5073171,24.9237251 L24.5073171,4.4 C24.5073171,3.7372583 23.9700588,3.2 23.3073171,3.2 L17.8700665,3.2 Z M17.8700665,0.8 L23.3073171,0.8 C25.2955422,0.8 26.9073171,2.4117749 26.9073171,4.4 L26.9073171,24.9237251 C26.9073171,26.9119502 25.2955422,28.5237251 23.3073171,28.5237251 L23.2580931,28.5237251 C22.5953514,28.5237251 22.0580931,29.0609834 22.0580931,29.7237251 L22.0580931,47.0146341 C22.0580931,49.0028592 20.4463182,50.6146341 18.4580931,50.6146341 L9.24922395,50.6146341 C7.26099885,50.6146341 5.64922395,49.0028592 5.64922395,47.0146341 L5.64922395,29.7237251 C5.64922395,29.0609834 5.11196565,28.5237251 4.44922395,28.5237251 L4.4,28.5237251 C2.4117749,28.5237251 0.8,26.9119502 0.8,24.9237251 L0.8,4.4 C0.8,2.4117749 2.4117749,0.8 4.4,0.8 L9.83725055,0.8 C11.8254757,0.8 13.4372506,2.4117749 13.4372506,4.4 L13.4372506,7.9268293 C13.4372506,8.15680506 13.6236828,8.34323725 13.8536586,8.34323725 C14.0836343,8.34323725 14.2700665,8.15680505 14.2700665,7.9268293 L14.2700665,4.4 C14.2700665,2.4117749 15.8818414,0.8 17.8700665,0.8 Z"></path>
                                <path d="M46.9654102,28.5237251 C44.9771851,28.5237251 43.3654102,26.9119502 43.3654102,24.9237251 L43.3654102,4.4 C43.3654102,3.7372583 42.8281519,3.2 42.1654102,3.2 L36.189357,3.2 C35.5266153,3.2 34.989357,3.7372583 34.989357,4.4 L34.989357,24.9237251 C34.989357,26.9119502 33.3775821,28.5237251 31.389357,28.5237251 L31.340133,28.5237251 C30.6773913,28.5237251 30.140133,29.0609834 30.140133,29.7237251 L30.140133,47.0146341 C30.140133,47.6773758 30.6773913,48.2146341 31.340133,48.2146341 L47.0146341,48.2146341 C47.6773758,48.2146341 48.2146341,47.6773758 48.2146341,47.0146341 L48.2146341,29.7237251 C48.2146341,29.0609834 47.6773758,28.5237251 47.0146341,28.5237251 L46.9654102,28.5237251 Z M46.9654102,26.1237251 L47.0146341,26.1237251 C49.0028592,26.1237251 50.6146341,27.7355 50.6146341,29.7237251 L50.6146341,47.0146341 C50.6146341,49.0028592 49.0028592,50.6146341 47.0146341,50.6146341 L31.340133,50.6146341 C29.3519079,50.6146341 27.740133,49.0028592 27.740133,47.0146341 L27.740133,29.7237251 C27.740133,27.7355 29.3519079,26.1237251 31.340133,26.1237251 L31.389357,26.1237251 C32.0520987,26.1237251 32.589357,25.5864668 32.589357,24.9237251 L32.589357,4.4 C32.589357,2.4117749 34.2011319,0.8 36.189357,0.8 L42.1654102,0.8 C44.1536353,0.8 45.7654102,2.4117749 45.7654102,4.4 L45.7654102,24.9237251 C45.7654102,25.5864668 46.3026685,26.1237251 46.9654102,26.1237251 Z"></path>
                            </g>
                        </g>
                    </g>
                </g>
                <rect id="矩形" x="0" y="0" width="60" height="60"></rect>
            </g>
        </g>
    </g>
</svg>