<?xml version="1.0" encoding="UTF-8"?>
<svg width="60px" height="60px" viewBox="0 0 60 60" version="1.1" xmlns="http://www.w3.org/2000/svg" xmlns:xlink="http://www.w3.org/1999/xlink">
    <!-- Generator: Sketch 53.2 (72643) - https://sketchapp.com -->
    <title>上门服务</title>
    <desc>Created with Sketch.</desc>
    <g id="首页" stroke="none" stroke-width="1" fill="none" fill-rule="evenodd">
        <g id="上门服务">
            <rect id="矩形" x="0" y="0" width="60" height="60"></rect>
            <g id="分组-22" transform="translate(8.000000, 5.500000)" stroke="#323232" stroke-width="2.4">
                <path d="M1.70481518,10.9423004 C0.77993514,11.4248465 0.2,12.381544 0.2,13.424738 L0.2,45 C0.2,46.5463973 1.4536027,47.8 3,47.8 L41,47.8 C42.5463973,47.8 43.8,46.5463973 43.8,45 L43.8,13.424738 C43.8,12.381544 43.2200649,11.4248465 42.2951848,10.9423004 L23.2951848,1.02925696 C22.4836364,0.60584039 21.5163636,0.60584039 20.7048152,1.02925696 L1.70481518,10.9423004 Z" id="矩形"></path>
                <circle id="椭圆形" cx="22" cy="21" r="5"></circle>
                <path d="M13.5,31.2 C11.1251756,31.2 9.2,33.1251756 9.2,35.5 L9.2,39 C9.2,39.4418278 9.5581722,39.8 10,39.8 L34,39.8 C34.4418278,39.8 34.8,39.4418278 34.8,39 L34.8,35.5 C34.8,33.1251756 32.8748244,31.2 30.5,31.2 L13.5,31.2 Z" id="矩形"></path>
            </g>
        </g>
    </g>
</svg>