<?xml version="1.0" encoding="utf-8"?>
<!-- Generator: Adobe Illustrator 23.1.1, SVG Export Plug-In . SVG Version: 6.00 Build 0)  -->
<svg version="1.1" id="Layer_1" xmlns="http://www.w3.org/2000/svg" xmlns:xlink="http://www.w3.org/1999/xlink" x="0px" y="0px"
	 viewBox="0 0 135 135" style="enable-background:new 0 0 135 135;" xml:space="preserve">
<style type="text/css">
	.st0{display:none;}
	.st1{display:inline;fill-rule:evenodd;clip-rule:evenodd;fill:#FFFFFF;}
	.st2{filter:url(#Adobe_OpacityMaskFilter);}
	.st3{fill-rule:evenodd;clip-rule:evenodd;fill:#FFFFFF;}
	.st4{mask:url(#mask-2_1_);}
	.st5{fill-rule:evenodd;clip-rule:evenodd;}
	.st6{filter:url(#Adobe_OpacityMaskFilter_1_);}
	.st7{mask:url(#mask-4_1_);fill-rule:evenodd;clip-rule:evenodd;}
	.st8{filter:url(#Adobe_OpacityMaskFilter_2_);}
	.st9{mask:url(#mask-6_1_);fill-rule:evenodd;clip-rule:evenodd;}
	.st10{filter:url(#Adobe_OpacityMaskFilter_3_);}
	.st11{mask:url(#mask-8_1_);fill-rule:evenodd;clip-rule:evenodd;}
</style>
<title>Picture1</title>
<desc>Created with Sketch.</desc>
<g id="Brand">
	<g id="PC_Brand" transform="translate(-1175.000000, -1599.000000)">
		<g transform="translate(129.000000, 867.000000)">
			<g transform="translate(0.000000, 690.000000)">
				<g id="Picture1" transform="translate(1046.000000, 42.000000)">
					<g id="Mask" class="st0">
						<rect class="st1" width="135" height="135"/>
					</g>
					<defs>
						<filter id="Adobe_OpacityMaskFilter" filterUnits="userSpaceOnUse" x="1" y="37" width="133.2" height="61">
							<feColorMatrix  type="matrix" values="1 0 0 0 0  0 1 0 0 0  0 0 1 0 0  0 0 0 1 0"/>
						</filter>
					</defs>
					<mask maskUnits="userSpaceOnUse" x="1" y="37" width="133.2" height="61" id="mask-2_1_">
						<g class="st2">
							<rect id="path-1_1_" class="st3" width="135" height="135"/>
						</g>
					</mask>
					<g id="Group-24" class="st4">
						<g transform="translate(1.000000, 37.000000)">
							<path id="Fill-1" class="st5" d="M67.4,57.9l-3.3-4.9h-1.1v7.8h1.3V56l3.3,4.9h1.1v-7.8h-1.3V57.9z M82.9,56.8h-1.5v-2.3h1.5
								c0.6,0,1.1,0.5,1.1,1.1C84.1,56.3,83.6,56.8,82.9,56.8L82.9,56.8z M83.7,58.1c1-0.3,1.7-1.3,1.7-2.4c0-1.4-1.1-2.5-2.4-2.5
								h-2.9v7.8h1.3v-3.5l2.8,3.5H86L83.7,58.1z M74.4,59.6c-1.4,0-2.5-1.2-2.5-2.6s1.1-2.6,2.5-2.6c1.4,0,2.5,1.2,2.5,2.6
								S75.8,59.6,74.4,59.6L74.4,59.6z M74.4,53c-2.1,0-3.9,1.8-3.9,4c0,2.2,1.7,4,3.9,4c2.1,0,3.9-1.8,3.9-4
								C78.3,54.8,76.6,53,74.4,53L74.4,53z M57.4,59.6c-1.4,0-2.5-1.2-2.5-2.6s1.1-2.6,2.5-2.6s2.5,1.2,2.5,2.6
								S58.8,59.6,57.4,59.6L57.4,59.6z M57.4,53c-2.1,0-3.9,1.8-3.9,4c0,2.2,1.7,4,3.9,4c2.1,0,3.9-1.8,3.9-4
								C61.2,54.8,59.5,53,57.4,53L57.4,53z M50.3,56.3h-3v-3.2H46v7.8h1.3v-3.2h3v3.2h1.3v-7.8h-1.3V56.3z"/>
							<path id="Fill-3" class="st5" d="M45.5,36c-0.2-0.1-0.3-0.1-0.5-0.1c-0.2,0-0.4,0.2-0.5,0.3c-0.8,1.2-2.1,2.2-2.8,2.8
								c-0.7,0.5-1.4,0.8-2.1,0.9c-0.8,0.1-1.3-0.2-1.8-0.8c-0.5-0.6-0.8-1.5-0.8-2.7c0-1,0.1-2.1,0.4-3.1c0.3-1,0.7-2.1,1.3-3
								c0.5-0.9,1.1-1.7,1.7-2.2c0.5-0.5,1-0.7,1.5-0.8c0.3,0,0.4,0.1,0.4,0.1c0.1,0.1,0.2,0.4,0.2,0.6c0,1.1-0.4,1.8-1.3,2.3
								c-0.2,0.1-0.4,0.4-0.4,0.6c0,0.3,0.1,0.5,0.2,0.7c0.4,0.3,0.8,0.5,1.3,0.5c0.8-0.1,1.6-0.5,2.3-1.4c0.6-0.8,1-1.7,0.9-2.6
								c0-1-0.4-1.8-1-2.4c-0.7-0.6-1.5-0.8-2.5-0.7c-1.4,0.1-2.8,0.8-4.2,2.2c-1.4,1.3-2.5,2.9-3.4,4.7c-0.9,1.9-1.3,3.7-1.3,5.4
								c0,1.8,0.5,3.2,1.5,4.2c1,1,2.2,1.5,3.6,1.4c0.1,0,0.2,0,0.4,0c1.4-0.1,2.7-0.6,3.8-1.5c1.1-0.8,2.4-2.5,3.5-4.2
								c0.2-0.4,0.2-0.8-0.2-1.1L45.5,36z"/>
							<path id="Fill-5" class="st5" d="M116,11.2c0-1.4-1.1-2.4-2.5-2.2c-1.4,0.2-2.5,1.4-2.5,2.8s1.1,2.4,2.5,2.2
								S116,12.6,116,11.2"/>
							<path id="Fill-7" class="st5" d="M24.3,31c1.1-1.7,2.1-2.6,3.1-2.7c0,0,0,0,0.1,0c0.1,0,0.2,0,0.2,0c0,0,0.2,1-0.6,2.4
								c-0.2,0.3-0.3,0.6-0.5,0.9c-0.1,0.1-0.2,0.2-0.2,0.3c0,0-0.1,0.1-0.1,0.1c-0.8,0.9-1.9,2-3.6,3.1
								C22.8,33.7,23.4,32.3,24.3,31 M31.7,37.6l-0.3-0.2c-0.2-0.1-0.4-0.2-0.6-0.1c-0.2,0-0.4,0.2-0.6,0.3c-0.9,1.1-2,2-2.8,2.5
								c-0.7,0.5-1.4,0.8-2.1,0.8c-0.9,0.1-1.6-0.2-2.1-0.7c-0.6-0.6-0.9-1.3-0.9-2.4c2.6-1.2,4.7-2.5,6.3-4c1.8-1.7,2.6-3.3,2.6-5
								c0-0.9-0.4-1.7-1.1-2.2c-0.7-0.5-1.5-0.8-2.5-0.7c-1.5,0.1-3.1,0.8-4.6,2.2c-1.4,1.3-2.6,2.8-3.6,4.6
								c-0.9,1.8-1.4,3.7-1.4,5.4c0,1.8,0.6,3.3,1.7,4.3c1,1,2.4,1.5,4,1.4c0.1,0,0.3,0,0.4,0c1.4-0.1,2.8-0.6,4.1-1.4
								c1.2-0.8,2.5-2.2,3.7-3.8C32.1,38.4,32,37.9,31.7,37.6"/>
							<g id="Group-11" transform="translate(63.000000, 0.000000)">
								<g id="Clip-10">
								</g>
								<defs>
									<filter id="Adobe_OpacityMaskFilter_1_" filterUnits="userSpaceOnUse" x="0.9" y="0" width="27" height="40">
										<feColorMatrix  type="matrix" values="1 0 0 0 0  0 1 0 0 0  0 0 1 0 0  0 0 0 1 0"/>
									</filter>
								</defs>
								<mask maskUnits="userSpaceOnUse" x="0.9" y="0" width="27" height="40" id="mask-4_1_">
									<g class="st6">
										<polygon id="path-3_1_" class="st3" points="0.9,0 27.8,0 27.8,40 0.9,40 										"/>
									</g>
								</mask>
								<path id="Fill-9" class="st7" d="M25.9,29.4c-0.2,0-0.4,0.1-0.5,0.2L25,30c-2.1,2-4.8,4.2-6.4,5.1c-1.6,0.9-3.2,1.4-4.8,1.5
									c-2.5,0.2-4.1-0.6-5.5-2.3c-1.5-1.7-2.2-4.2-2.3-7.4c0-1.9,0.2-3.8,0.6-5.7c0.4-1.8,1.1-3.7,1.9-5.5c0.9-1.8,2-3.6,3.2-5.3
									c1.2-1.6,2.1-2.9,3.4-4c1.3-1.1,2.6-2.1,3.9-2.7c1.3-0.7,2.4-1,3.5-1.1c0.8-0.1,1.4,0.1,1.8,0.4C24.8,3.3,25,3.7,25,4.4
									c0,1-0.4,2.1-1.1,3.3c-0.8,1.2-1.9,2.4-3.4,3.5c-1.5,1.1-3,1.6-4.6,2.2c-0.2,0.1-0.4,0.2-0.5,0.4c-0.1,0.1-0.1,0.2-0.1,0.4
									l0,0l0.2,2.8c0,0,0.1,0.2,0.2,0.4c0,0,0.1,0.1,0.2,0.1c0,0,0.1,0,0.1,0.1c0.1,0.1,0.3,0.1,0.4,0.1c0,0,0,0,0,0l0,0
									c0.1,0,0.1,0,0.2,0c1.9-0.7,4.3-2,5.9-3.3c1.6-1.4,2.9-2.9,3.9-4.6c1-1.7,1.5-3.4,1.5-4.9c0-1.5-0.5-2.7-1.5-3.5
									c-1-0.8-2.2-1.2-3.7-1c-1.5,0.1-3.2,0.7-5,1.7c-1.8,1-3.6,2.3-5.4,4c-1.8,1.6-3.4,3.5-4.8,5.5C6,13.1,4.8,15,3.9,17
									c-1,2-1.8,4-2.2,5.9c-0.5,1.9-0.7,3.8-0.7,5.5c0,2.4,0.5,4.6,1.4,6.3c0.9,1.8,2.3,3.2,4,4.1c1.5,0.8,3.3,1.2,5.2,1.1
									c0.2,0,0.5,0,0.7,0c2.4-0.2,4.7-0.9,7-2.3c1.9-1.1,3.9-2.6,5.8-4.5c0.2-0.2,0.3-0.4,0.3-0.4l0.8-2.9
									C26.2,29.5,26,29.4,25.9,29.4"/>
							</g>
							<g id="Group-14" transform="translate(115.000000, 18.000000)">
								<g id="Clip-13">
								</g>
								<defs>
									<filter id="Adobe_OpacityMaskFilter_2_" filterUnits="userSpaceOnUse" x="0.2" y="0.5" width="18" height="17.9">
										<feColorMatrix  type="matrix" values="1 0 0 0 0  0 1 0 0 0  0 0 1 0 0  0 0 0 1 0"/>
									</filter>
								</defs>
								<mask maskUnits="userSpaceOnUse" x="0.2" y="0.5" width="18" height="17.9" id="mask-6_1_">
									<g class="st8">
										<polygon id="path-5_1_" class="st3" points="0.2,0.5 18.2,0.5 18.2,18.4 0.2,18.4 										"/>
									</g>
								</mask>
								<path id="Fill-12" class="st9" d="M18,12.4c0.4-0.1,0.2-0.4,0.2-0.4c-0.1-0.1-0.3-0.3-0.5-0.5L17.3,11
									c-0.1-0.1-0.2-0.2-0.3-0.3l-0.3-0.3c-0.1-0.1-0.3-0.1-0.4-0.1c-2.1,0.7-4.8,2.2-8.3,4.6c0,0,0,0,0,0
									c-0.3,0.2-0.5,0.3-0.6,0.4c-0.2,0.1-0.4,0.1-0.6,0.1c-0.8,0.1-1.4-0.2-1.8-0.8c-0.5-0.6-0.8-1.5-0.8-2.7
									c0-1,0.1-2.1,0.4-3.1c0.3-1,0.7-2.1,1.3-3c0.5-0.9,1.1-1.7,1.7-2.2c0.5-0.5,1-0.7,1.5-0.8c0.2,0,0.5,0,0.6,0.4
									c0,0.1,0,0.2,0,0.3c0,1.1-0.4,1.8-1.3,2.3C8.4,5.9,8.2,6.1,8.2,6.3c0,0.2,0.1,0.4,0.6,0.4c0.6,0.1,1.4,0.1,2.3-0.3
									c0,0,0,0,0,0c0.2-0.1,0.4-0.2,0.6-0.3c0.5-0.3,0.9-0.8,1.2-1.6C12.9,4.2,13,3.9,13,3.6c0-1-0.4-1.8-1.1-2.4
									c-0.7-0.5-1.6-0.8-2.6-0.7C7.9,0.6,6.5,1.4,5,2.7C3.6,4,2.4,5.5,1.6,7.4C0.7,9.2,0.2,11,0.2,12.8c0,1.8,0.5,3.2,1.6,4.2
									c1,1,2.2,1.5,3.7,1.4c0.1,0,0.2,0,0.4,0c0.4,0,0.9-0.1,1.3-0.2c0,0,0,0,0,0c1.5-0.4,2.8-1.4,2.8-1.4
									C13.2,14.6,16.4,12.9,18,12.4C18,12.4,18,12.4,18,12.4"/>
							</g>
							<path id="Fill-15" class="st5" d="M113.6,31.8c-0.1-0.1-0.1-0.1-0.2-0.2c0,0,0,0,0,0c-0.1-0.1-0.2-0.1-0.2-0.1
								c-0.3-0.1-0.6,0-0.9,0.2c-1.8,1.7-2.5,1.9-2.5,1.9c0,0,0,0-0.1-0.1c-0.1-0.2-0.2-0.6-0.1-1c0.1-0.8,0.4-1.9,0.9-3.4l3.4-9
								c0.1-0.3,0-0.6-0.2-0.9c-0.2-0.2-0.6-0.3-0.9-0.2l-2.9,1.1c-0.3,0.1-0.5,0.3-0.5,0.6l-2.7,9.6c-0.4,1.2-0.6,2.1-0.6,2.8
								c-0.1,1,0.1,1.9,0.5,2.7c0.6,1,1.4,1.2,2,1.3c0.1,0,0.1,0,0.1,0c0.7,0,1.3-0.3,2.1-0.8c0.4-0.3,1-0.9,1.7-1.6l1.3-1.4
								c0.1-0.1,0.2-0.2,0.2-0.3c0,0,0-0.1,0-0.1c0-0.1,0-0.1,0-0.2c0-0.1,0-0.1,0-0.2C113.9,32.2,113.8,32,113.6,31.8"/>
							<path id="Fill-17" class="st5" d="M67.4,30.6c-0.2-0.2-0.4-0.3-0.6-0.3c-0.3-0.1-0.5,0-0.8,0.3c-0.3,0.3-0.7,0.8-1.2,1.6
								c-0.5,0.7-1.1,1.5-1.7,2.3c-0.6,0.9-1.3,1.9-2,3c-0.2,0.2-0.4,0.4-0.7,0.5c-0.2,0.1-0.4,0.2-0.7,0.2c-1,0-0.9-1.4-0.7-2.4
								c0.1-0.5,0.2-1,0.4-1.5c0.3-1,0.7-1.9,1.1-2.7c0.4-0.9,0.7-1.5,0.9-2c0.1-0.3,0.1-0.6-0.1-0.9c-0.2-0.3-0.5-0.5-0.8-0.7
								c-0.3-0.2-0.7-0.3-1-0.3c-0.9-0.2-2,0.5-2.7,0.9c0,0,0,0-0.1,0c-0.3,0.2-0.4,0.3-0.4,0.3l0,0c-0.1,0-0.1,0.1-0.1,0.1
								c-0.8,0.7-1.6,1.4-2.4,2.2c-0.8,0.8-1.5,1.6-2.2,2.4c-0.7,0.8-1.2,1.5-1.5,1.9c0.1-0.9,0.3-1.9,0.6-3
								c0.4-1.1,0.8-2.3,1.3-3.5c0.5-1.2,1-2.4,1.6-3.6c0.6-1.2,1.1-2.2,1.6-3.2c0.5-0.9,3.4-6.1,3.8-6.7c0.1-0.3,0.3-0.5,0.3-0.7
								c0.1-0.3,0.1-0.5,0.1-0.6c0,0,0,0,0,0c0-0.1-0.1-0.2-0.1-0.2C59.2,14,59.1,14,59,14l-0.1,0l0,0l-2.5,0.3
								c-0.3,0-0.6,0.3-0.6,0.4l-0.5,0.8c-0.1,0.1-0.2,0.3-0.3,0.5L54.9,16l0,0c0,0.1-0.1,0.1-0.1,0.2c-0.5,0.9-2.6,4.7-3.3,6
								c-0.6,1.3-1.3,2.8-1.9,4.5c-0.7,1.6-1.2,3.3-1.7,4.9c-0.4,1.6-0.7,3.1-0.9,4.4c-0.1,1.4,0,2.4,0.4,3.2c0.3,0.6,0.6,1,0.9,1.2
								c0.3,0.3,0.7,0.4,1,0.5c0.2,0,0.3,0.1,0.4,0.1c0,0,0.1,0,0.1,0c0.1,0,0.1,0,0.2,0c0.5-0.1,0.7-0.4,0.7-0.5c0,0,0-0.1,0-0.1
								c0,0,0-0.1,0-0.1s0,0,0,0c1.4-4.2,5.5-8,5.5-8c-0.1,0.3-0.2,0.6-0.2,1c-0.3,1.7-0.5,5.2,2.5,7.1c0.6,0.3,1.1,0.4,1.6,0.4
								c0.5,0,0.9-0.1,1.2-0.2c0.3-0.2,0.6-0.4,0.9-0.6c0.2-0.3,0.4-0.5,0.6-0.7l5.1-7.8C67.8,31.1,67.6,30.8,67.4,30.6"/>
							<path id="Fill-19" class="st5" d="M109.4,26.6c-0.2-0.2-0.4-0.3-0.6-0.3c-0.3-0.1-0.5,0-0.8,0.3c-0.3,0.3-0.7,0.8-1.2,1.6
								c-0.5,0.7-1.1,1.5-1.7,2.3c-0.6,0.9-1.3,1.9-2,3c-0.2,0.2-0.4,0.4-0.7,0.5c-0.2,0.1-0.4,0.2-0.7,0.2c-1,0-0.9-1.4-0.7-2.4
								c0.1-0.5,0.2-1,0.4-1.5c0.3-1,0.7-1.9,1.1-2.7c0.4-0.9,0.7-1.5,0.9-2c0.1-0.3,0.1-0.6-0.1-0.9c-0.2-0.3-0.5-0.5-0.8-0.7
								c-0.3-0.2-0.7-0.3-1-0.3c-0.9-0.2-2,0.5-2.7,0.9c0,0,0,0-0.1,0c-0.3,0.2-0.4,0.3-0.4,0.3l0,0c-0.1,0-0.1,0.1-0.1,0.1
								c-0.8,0.7-1.6,1.4-2.4,2.2c-0.8,0.8-1.5,1.6-2.2,2.4c-0.7,0.8-1.2,1.5-1.5,1.9c0.1-0.9,0.3-1.9,0.6-3
								c0.4-1.1,0.8-2.3,1.3-3.5c0.5-1.2,1-2.4,1.6-3.6c0.6-1.2,1.1-2.2,1.6-3.2c0.5-0.9,3.4-6.1,3.8-6.7c0.1-0.3,0.3-0.5,0.3-0.7
								c0.1-0.3,0.1-0.5,0.1-0.6c0,0,0,0,0,0c0-0.1-0.1-0.2-0.1-0.2c-0.1-0.1-0.2-0.1-0.2-0.1l-0.1,0v0l-2.5,0.3
								c-0.3,0-0.6,0.3-0.6,0.4l-0.5,0.8c-0.1,0.1-0.2,0.3-0.3,0.5L96.9,12l0,0c0,0.1-0.1,0.1-0.1,0.2c-0.5,0.9-2.6,4.7-3.3,6
								c-0.6,1.3-1.3,2.8-1.9,4.5c-0.7,1.6-1.2,3.3-1.7,4.9c-0.4,1.6-0.7,3.1-0.9,4.4c-0.1,1.4,0,2.4,0.4,3.2c0.3,0.6,0.6,1,0.9,1.2
								c0.3,0.3,0.7,0.4,1,0.5c0.2,0,0.3,0.1,0.4,0.1c0,0,0.1,0,0.1,0c0.1,0,0.1,0,0.2,0c0.5-0.1,0.7-0.4,0.7-0.5c0,0,0-0.1,0-0.1
								c0,0,0-0.1,0-0.1s0,0,0,0c1.4-4.2,5.5-8,5.5-8c-0.1,0.3-0.2,0.6-0.2,1c-0.3,1.7-0.5,5.2,2.5,7.1c0.6,0.3,1.1,0.4,1.6,0.4
								c0.5,0,0.9-0.1,1.2-0.2c0.3-0.2,0.6-0.4,0.9-0.6c0.2-0.3,0.4-0.5,0.6-0.7l5.1-7.8C109.8,27.1,109.6,26.8,109.4,26.6"/>
							<g id="Group-23" transform="translate(0.000000, 6.000000)">
								<g id="Clip-22">
								</g>
								<defs>
									<filter id="Adobe_OpacityMaskFilter_3_" filterUnits="userSpaceOnUse" x="0" y="0" width="41.2" height="39.3">
										<feColorMatrix  type="matrix" values="1 0 0 0 0  0 1 0 0 0  0 0 1 0 0  0 0 0 1 0"/>
									</filter>
								</defs>
								<mask maskUnits="userSpaceOnUse" x="0" y="0" width="41.2" height="39.3" id="mask-8_1_">
									<g class="st10">
										<polygon id="path-7_1_" class="st3" points="0,0 41.2,0 41.2,39.3 0,39.3 										"/>
									</g>
								</mask>
								<path id="Fill-21" class="st11" d="M41.1,2.7l-0.8-1.1c0-0.1-0.1-0.1-0.1-0.2L39.9,1c0-0.1-0.1-0.1-0.1-0.2l-0.1-0.2
									C39.4,0.1,39,0,38.8,0c-3,0.3-5.9,0.7-8.8,1.2c-3.1,0.6-6.1,1.2-8.9,1.9c-2.8,0.7-5.4,1.4-7.7,2.1C12,5.7,10.7,6.1,9.5,6.5
									L8,7C7.8,7.1,7.5,7.2,7.2,7.3C7.1,7.3,7.1,7.3,7,7.4L1.8,9.1c0,0-2.2,0.8-1.7,3c0.4,1,1.7,0.7,1.7,0.7l3.7-1.5
									c0.1,0,0.2-0.1,0.4-0.2c3.7-1.5,7.1-2.6,10.4-3.6l0,0l0.4-0.1c0.2-0.1,0.4-0.1,0.6-0.2c0,0,0,0,0,0l2.5-0.7l-2.6,1.6
									c0,0-0.4,0.3-0.7,1c-0.3,0.7-0.6,1.4-0.9,2.2c-0.1,0.3-0.2,0.6-0.4,0.9c-0.2,0.4-0.3,0.8-0.5,1.2c-0.1,0.3-0.2,0.5-0.3,0.8
									C9.8,26,8.2,33.9,8.4,35.9c0.2,1.2,0.7,2,1.2,2.4c0,0.1,0.1,0.1,0.2,0.1c0,0,0.1,0.1,0.1,0.1c0.1,0,0.1,0.1,0.2,0.1
									c0.2,0.1,0.3,0.2,0.3,0.2c0.6,0.3,1.2,0.4,1.7,0.5c0.2,0,0.3,0,0.4-0.1c0,0,0.1,0,0.1,0c0.1,0,0.2,0,0.2-0.1
									c0.1,0,0.1-0.1,0.1-0.1c0,0,0,0,0,0c0.3-0.3,0.3-0.6,0.3-0.8c0,0,0,0,0,0c0,0,0,0,0,0c0,0,0,0,0,0l0,0
									C12.5,19.7,22.3,7.4,23.8,5.7C29.7,4.4,34.3,3.8,37,3.6c0.9,0,1.8-0.1,2.6-0.2c0.3,0,0.5,0,0.8-0.1
									C41.3,3.3,41.2,2.9,41.1,2.7"/>
							</g>
						</g>
					</g>
				</g>
			</g>
		</g>
	</g>
</g>
</svg>
