<?xml version="1.0" encoding="utf-8"?>
<!-- Generator: Adobe Illustrator 23.1.1, SVG Export Plug-In . SVG Version: 6.00 Build 0)  -->
<svg version="1.1" id="Layer_1" xmlns="http://www.w3.org/2000/svg" xmlns:xlink="http://www.w3.org/1999/xlink" x="0px" y="0px"
	 viewBox="0 0 135 135" style="enable-background:new 0 0 135 135;" xml:space="preserve">
<style type="text/css">
	.st0{display:none;}
	.st1{display:inline;fill-rule:evenodd;clip-rule:evenodd;fill:#FFFFFF;}
	.st2{filter:url(#Adobe_OpacityMaskFilter);}
	.st3{fill-rule:evenodd;clip-rule:evenodd;fill:#FFFFFF;}
	.st4{mask:url(#mask-2_1_);}
	.st5{fill-rule:evenodd;clip-rule:evenodd;fill:#EBEBEB;}
	.st6{fill-rule:evenodd;clip-rule:evenodd;}
</style>
<title>Picture1</title>
<desc>Created with Sketch.</desc>
<g id="Brand">
	<g id="PC_Brand" transform="translate(-129.000000, -909.000000)">
		<g transform="translate(129.000000, 867.000000)">
			<g>
				<g id="Picture1" transform="translate(0.000000, 42.000000)">
					<g id="Mask" class="st0">
						<rect x="0" y="0" class="st1" width="135" height="135"/>
					</g>
					<defs>
						<filter id="Adobe_OpacityMaskFilter" filterUnits="userSpaceOnUse" x="7" y="18" width="119" height="102">
							<feColorMatrix  type="matrix" values="1 0 0 0 0  0 1 0 0 0  0 0 1 0 0  0 0 0 1 0"/>
						</filter>
					</defs>
					<mask maskUnits="userSpaceOnUse" x="7" y="18" width="119" height="102" id="mask-2_1_">
						<g class="st2">
							<rect id="path-1_1_" x="0" y="0" class="st3" width="135" height="135"/>
						</g>
					</mask>
					<g id="Group-25" class="st4">
						<g transform="translate(7.000000, 18.000000)">
							<polygon id="Fill-1" class="st5" points="0,0 70.7,102 99,102 75.3,67.8 75.3,67.8 28.2,0 							"/>
							<g id="Group-24" transform="translate(7.000000, 18.000000)">
								<path id="Fill-2" class="st6" d="M98.7,15.9c0,1.8,1.5,3.3,3.3,3.3c1.8,0,3.3-1.5,3.3-3.3s-1.5-3.3-3.3-3.3
									C100.2,12.6,98.7,14,98.7,15.9L98.7,15.9z M99.8,15.9c0-1.2,1-2.2,2.2-2.2c1.2,0,2.2,1,2.2,2.2s-1,2.2-2.2,2.2
									C100.8,18,99.8,17.1,99.8,15.9L99.8,15.9z M84.1,15.9c0,1.8,1.5,3.3,3.3,3.3c1.8,0,3.3-1.5,3.3-3.3s-1.5-3.3-3.3-3.3
									C85.6,12.6,84.1,14,84.1,15.9L84.1,15.9z M85.2,15.9c0-1.2,1-2.2,2.2-2.2c1.2,0,2.2,1,2.2,2.2s-1,2.2-2.2,2.2
									C86.2,18,85.2,17.1,85.2,15.9L85.2,15.9z M96,12.6v4l-2.8-4h-0.9v6.4h1.1v-4l2.8,4h0.9v-6.4H96z M106.8,12.6v6.4h1.2v-2.9
									l2.4,2.9h1.5l-2-2.4c0.8-0.3,1.5-1.1,1.5-2c0-1.2-0.9-2.1-2.1-2.1H106.8z M108,13.8h1.3c0.5,0,0.9,0.4,0.9,1
									c0,0.5-0.4,0.9-1,0.9H108V13.8z M81.4,12.6v2.6h-2.6v-2.6h-1.2v6.4h1.2v-2.7h2.6v2.7h1.1v-6.4H81.4z"/>
								<path id="Fill-4" class="st6" d="M85.8,29.6c0.8,0.8,1.4,1.4,1.7,1.7l0.1,0.1l1.2-1.2l-0.1-0.1c-0.3-0.3-0.9-0.8-1.8-1.6
									c-0.5-0.4-0.8-0.7-1.1-0.9l-0.1-0.1l-1,1.1l0.1,0.1C84.9,28.9,85.3,29.2,85.8,29.6"/>
								<path id="Fill-6" class="st6" d="M82.8,29.1h-1.1v-1h2.7v-1.6h-2.7v-2.2c0.9-0.1,1.7-0.2,2.2-0.3l0.2,0v-1.7l-0.2,0
									c-2.1,0.3-4.3,0.6-6.4,0.8l-0.2,0l0,1.6l0.2,0c0.3,0,0.6-0.1,0.7-0.1c0.4,0,1-0.1,1.8-0.2v2h-2.8v1.6h2.6
									c-0.7,2.1-2,4.4-3.2,5.9l-0.3,0.3h2.1l0.1-0.1c0.6-0.8,1.1-1.7,1.5-2.6v6.5h1.6v-8.2l1.2,1.6h1.9L82.8,29.1z"/>
								<path id="Fill-8" class="st6" d="M86.3,25.5l2.1,1.8l1.1-1.2l-3.2-2.8l-1.2,1.2l0.2,0.1C85.6,24.9,85.9,25.2,86.3,25.5"/>
								<polygon id="Fill-10" class="st6" points="91.4,21.8 89.7,21.8 89.7,32 83.4,32.6 83.4,34.2 89.7,33.6 89.7,38.3 91.4,38.3 
									91.4,33.4 94,33.2 94,31.6 91.4,31.9 								"/>
								<path id="Fill-12" class="st6" d="M99.6,30.9l1.3-0.5v-1.6c-0.5,0.2-1,0.3-1.6,0.5v-3.3h1.6v-1.6h-1.6v-2.6h-1.7v2.6h-2.2
									v1.6h2.2v3.8c-0.8,0.3-1.5,0.5-2.1,0.7l-0.1,0v1.8l0.3-0.1c0.6-0.2,1.2-0.4,2-0.7v4.3c0,0.2,0,0.4-0.1,0.4
									c-0.1,0.1-0.2,0.1-0.4,0.1l-1.7,0v1.7h0.2h1.9c1.2-0.1,1.9-0.8,1.8-2.1v-5C99.4,30.9,99.5,30.9,99.6,30.9"/>
								<path id="Fill-14" class="st6" d="M109.1,29.6c-0.6,1.6-1.4,3-2.5,4c-0.9-0.9-1.7-2.3-2.3-4H109.1z M112,25.9v-1.6h-4.6
									v-2.5h-1.7v2.5h-4v1.6h4v2.2h-4v1.5h0.9c0.7,2.2,1.7,3.9,2.8,5c-0.9,0.7-2.2,1.3-3.9,1.9l-0.1,0v1.9l0.3-0.1
									c1.9-0.7,3.6-1.6,4.9-2.5c1.2,0.9,3.3,1.8,5.2,2.5l0.3,0.1v-1.9l-0.1,0c-1.8-0.5-3.1-1.1-4-1.8c1.2-1.3,2.3-3.1,3.1-5.3
									l0-1.3h-3.6v-2.2H112z"/>
								<polygon id="Fill-16" class="st6" points="4.2,28.1 8,28.1 8,35.6 4.2,35.6 4.2,43 8,43 8,65.6 9.5,65.6 17.1,65.6 
									22.5,65.6 25.7,57.1 17.1,57.1 17.1,43 25.7,43 25.7,35.6 17.1,35.6 17.1,28.1 25.7,28.1 25.7,20.6 4.2,20.6 								"/>
								<path id="Fill-18" class="st6" d="M59.3,31.3H38.7V19.6h6.6h10.1h4V31.3z M61.3,57.1V39.8h6.6v0v-8.5V19.6V11h-6.6l7.4-10.7
									H58.6L51.2,11h0L49,14.1L46.9,11H30.2v8.5v11.7v8.5h6.9l-9.9,25.8H37l9.9-25.8h5.3v17.3v8.5h9.1h8.3l3.3-8.5H61.3z"/>
								<polygon id="Fill-20" class="st6" points="44.8,8 39.5,0.4 29.4,0.4 34.7,8 								"/>
								<polygon id="Fill-22" class="st6" points="21.8,0.4 11.7,0.4 0.1,17.1 10.2,17.1 12,14.5 25.7,14.5 25.7,7 17.2,7 								
									"/>
							</g>
						</g>
					</g>
				</g>
			</g>
		</g>
	</g>
</g>
</svg>
